<svg xmlns="http://www.w3.org/2000/svg" xmlns:xlink="http://www.w3.org/1999/xlink" width="500" zoomAndPan="magnify" viewBox="0 0 375 374.999991" height="500" preserveAspectRatio="xMidYMid meet" version="1.0"><defs><g/><clipPath id="f0ae6d73f3"><path d="M 15.347656 166.640625 L 75.347656 166.640625 L 75.347656 226.640625 L 15.347656 226.640625 Z M 15.347656 166.640625 " clip-rule="nonzero"/></clipPath><clipPath id="69d1548983"><path d="M 0.347656 0.640625 L 60.3125 0.640625 L 60.3125 60.605469 L 0.347656 60.605469 Z M 0.347656 0.640625 " clip-rule="nonzero"/></clipPath><clipPath id="8f6f27692c"><rect x="0" width="61" y="0" height="61"/></clipPath><clipPath id="2ad06f3e2c"><rect x="0" width="86" y="0" height="67"/></clipPath><clipPath id="9b6ba6109c"><path d="M 81.375 94.796875 L 142.125 94.796875 L 142.125 155.546875 L 81.375 155.546875 Z M 81.375 94.796875 " clip-rule="nonzero"/></clipPath><clipPath id="857e6c739b"><path d="M 15 94 L 77 94 L 77 156 L 15 156 Z M 15 94 " clip-rule="nonzero"/></clipPath><clipPath id="9eac853ee3"><path d="M 15.347656 154.75 L 16.425781 94.761719 L 76.414062 95.835938 L 75.335938 155.828125 Z M 15.347656 154.75 " clip-rule="nonzero"/></clipPath><clipPath id="9ec6364b55"><path d="M 0.121094 0.558594 L 61 0.558594 L 61 62 L 0.121094 62 Z M 0.121094 0.558594 " clip-rule="nonzero"/></clipPath><clipPath id="5a93129ff2"><path d="M 0.347656 60.75 L 1.425781 0.761719 L 61.414062 1.835938 L 60.335938 61.828125 Z M 0.347656 60.75 " clip-rule="nonzero"/></clipPath><clipPath id="0ba4414d8d"><path d="M 61.378906 1.871094 L 60.300781 61.863281 L 0.3125 60.785156 L 1.386719 0.796875 Z M 61.378906 1.871094 " clip-rule="nonzero"/></clipPath><clipPath id="43f036763c"><rect x="0" width="62" y="0" height="62"/></clipPath><clipPath id="92f97b5c6e"><path d="M 113 13 L 155.679688 13 L 155.679688 67 L 113 67 Z M 113 13 " clip-rule="nonzero"/></clipPath><clipPath id="8049798d49"><rect x="0" width="156" y="0" height="68"/></clipPath></defs><g clip-path="url(#f0ae6d73f3)"><g transform="matrix(1, 0, 0, 1, 15, 166)"><g clip-path="url(#8f6f27692c)"><g clip-path="url(#69d1548983)"><path fill="#5e17eb" d="M 0.347656 60.605469 C 33.464844 60.605469 60.3125 33.757812 60.3125 0.640625 L 0.347656 0.640625 Z M 0.347656 60.605469 " fill-opacity="1" fill-rule="nonzero"/></g></g></g></g><g transform="matrix(1, 0, 0, 1, 226, 165)"><g clip-path="url(#2ad06f3e2c)"><g fill="#5e17eb" fill-opacity="1"><g transform="translate(0.351879, 53.318674)"><g><path d="M 27.21875 1.140625 C 24.113281 1.140625 21.226562 0.648438 18.5625 -0.328125 C 15.90625 -1.316406 13.570312 -2.726562 11.5625 -4.5625 C 9.5625 -6.394531 8.003906 -8.609375 6.890625 -11.203125 C 5.773438 -13.804688 5.21875 -16.707031 5.21875 -19.90625 L 5.21875 -51.484375 L 14.609375 -51.484375 L 14.609375 -20.59375 C 14.609375 -18.164062 15.09375 -15.960938 16.0625 -13.984375 C 17.039062 -12.003906 18.46875 -10.425781 20.34375 -9.25 C 22.226562 -8.082031 24.519531 -7.5 27.21875 -7.5 C 29.863281 -7.5 32.117188 -8.078125 33.984375 -9.234375 C 35.859375 -10.398438 37.289062 -11.972656 38.28125 -13.953125 C 39.28125 -15.929688 39.78125 -18.132812 39.78125 -20.5625 L 39.78125 -51.484375 L 49.21875 -51.484375 L 49.21875 -19.90625 C 49.21875 -16.832031 48.6875 -14.015625 47.625 -11.453125 C 46.5625 -8.890625 45.054688 -6.664062 43.109375 -4.78125 C 41.171875 -2.90625 38.851562 -1.445312 36.15625 -0.40625 C 33.457031 0.625 30.476562 1.140625 27.21875 1.140625 Z M 27.21875 1.140625 "/></g></g></g><g fill="#5e17eb" fill-opacity="1"><g transform="translate(49.633565, 53.318674)"><g><path d="M 19.390625 1.171875 C 16.535156 1.171875 14.050781 0.789062 11.9375 0.03125 C 9.832031 -0.71875 8.09375 -1.734375 6.71875 -3.015625 C 5.34375 -4.304688 4.320312 -5.757812 3.65625 -7.375 C 2.988281 -9 2.65625 -10.664062 2.65625 -12.375 L 11.4375 -12.34375 C 11.507812 -10.570312 12.210938 -9.085938 13.546875 -7.890625 C 14.890625 -6.691406 16.859375 -6.09375 19.453125 -6.09375 C 21.828125 -6.09375 23.578125 -6.546875 24.703125 -7.453125 C 25.828125 -8.367188 26.390625 -9.554688 26.390625 -11.015625 C 26.390625 -12.128906 26.070312 -13 25.4375 -13.625 C 24.8125 -14.257812 23.882812 -14.757812 22.65625 -15.125 C 21.4375 -15.488281 19.941406 -15.796875 18.171875 -16.046875 C 16.304688 -16.304688 14.53125 -16.695312 12.84375 -17.21875 C 11.164062 -17.75 9.679688 -18.484375 8.390625 -19.421875 C 7.109375 -20.359375 6.09375 -21.53125 5.34375 -22.9375 C 4.601562 -24.351562 4.234375 -26.070312 4.234375 -28.09375 C 4.234375 -30.488281 4.796875 -32.582031 5.921875 -34.375 C 7.046875 -36.164062 8.695312 -37.566406 10.875 -38.578125 C 13.0625 -39.585938 15.734375 -40.09375 18.890625 -40.09375 C 22.015625 -40.09375 24.757812 -39.566406 27.125 -38.515625 C 29.488281 -37.472656 31.320312 -36.007812 32.625 -34.125 C 33.9375 -32.25 34.59375 -30.070312 34.59375 -27.59375 L 25.625 -27.671875 C 25.53125 -29.109375 24.921875 -30.285156 23.796875 -31.203125 C 22.671875 -32.128906 21.046875 -32.59375 18.921875 -32.59375 C 16.953125 -32.59375 15.515625 -32.171875 14.609375 -31.328125 C 13.703125 -30.484375 13.25 -29.46875 13.25 -28.28125 C 13.25 -27.320312 13.460938 -26.546875 13.890625 -25.953125 C 14.316406 -25.359375 15.117188 -24.863281 16.296875 -24.46875 C 17.472656 -24.082031 19.171875 -23.710938 21.390625 -23.359375 C 23.410156 -23.054688 25.289062 -22.648438 27.03125 -22.140625 C 28.769531 -21.640625 30.289062 -20.953125 31.59375 -20.078125 C 32.894531 -19.210938 33.910156 -18.09375 34.640625 -16.71875 C 35.367188 -15.34375 35.734375 -13.617188 35.734375 -11.546875 C 35.734375 -8.691406 35.019531 -6.320312 33.59375 -4.4375 C 32.164062 -2.5625 30.222656 -1.15625 27.765625 -0.21875 C 25.304688 0.707031 22.515625 1.171875 19.390625 1.171875 Z M 19.390625 1.171875 "/></g></g></g></g></g><g clip-path="url(#9b6ba6109c)"><path fill="#5e17eb" d="M 142.40625 94.796875 C 108.699219 94.796875 81.375 122.121094 81.375 155.828125 L 142.40625 155.828125 Z M 142.40625 94.796875 " fill-opacity="1" fill-rule="nonzero"/></g><g clip-path="url(#857e6c739b)"><g clip-path="url(#9eac853ee3)"><g transform="matrix(1, 0, 0, 1, 15, 94)"><g clip-path="url(#43f036763c)"><g clip-path="url(#9ec6364b55)"><g clip-path="url(#5a93129ff2)"><g clip-path="url(#0ba4414d8d)"><path fill="#ff3131" d="M 60.300781 61.828125 C 60.898438 28.714844 34.535156 1.390625 1.425781 0.796875 L 0.347656 60.75 Z M 60.300781 61.828125 " fill-opacity="1" fill-rule="nonzero"/></g></g></g></g></g></g></g><g transform="matrix(1, 0, 0, 1, 74, 164)"><g clip-path="url(#8049798d49)"><g fill="#ff3131" fill-opacity="1"><g transform="translate(1.082492, 53.527775)"><g><path d="M 15.71875 0 L 6.203125 0 L 6.203125 -52.03125 L 28.109375 -52.03125 C 30.742188 -52.03125 33.160156 -51.59375 35.359375 -50.71875 C 37.566406 -49.851562 39.472656 -48.632812 41.078125 -47.0625 C 42.691406 -45.5 43.941406 -43.644531 44.828125 -41.5 C 45.722656 -39.363281 46.171875 -37.03125 46.171875 -34.5 C 46.171875 -31.820312 45.726562 -29.382812 44.84375 -27.1875 C 43.96875 -25 42.734375 -23.113281 41.140625 -21.53125 C 39.546875 -19.957031 37.648438 -18.742188 35.453125 -17.890625 C 33.265625 -17.035156 30.867188 -16.609375 28.265625 -16.609375 L 15.71875 -16.609375 Z M 15.71875 -43.53125 L 15.71875 -25.09375 L 27.8125 -25.09375 C 29.46875 -25.09375 30.960938 -25.503906 32.296875 -26.328125 C 33.640625 -27.160156 34.695312 -28.285156 35.46875 -29.703125 C 36.25 -31.117188 36.640625 -32.71875 36.640625 -34.5 C 36.640625 -36.082031 36.242188 -37.5625 35.453125 -38.9375 C 34.671875 -40.320312 33.609375 -41.429688 32.265625 -42.265625 C 30.929688 -43.109375 29.421875 -43.53125 27.734375 -43.53125 Z M 15.71875 -43.53125 "/></g></g></g><g fill="#ff3131" fill-opacity="1"><g transform="translate(43.262935, 53.527775)"><g><path d="M 14.6875 0 L 5.4375 0 L 5.4375 -39.328125 L 14.3125 -39.328125 L 14.3125 -32.203125 C 15.226562 -34.378906 16.578125 -36.109375 18.359375 -37.390625 C 20.148438 -38.679688 22.316406 -39.328125 24.859375 -39.328125 L 29.078125 -39.328125 L 29.078125 -31.375 L 25.359375 -31.375 C 23.242188 -31.375 21.382812 -30.863281 19.78125 -29.84375 C 18.175781 -28.820312 16.925781 -27.34375 16.03125 -25.40625 C 15.132812 -23.46875 14.6875 -21.09375 14.6875 -18.28125 Z M 14.6875 0 "/></g></g></g><g fill="#ff3131" fill-opacity="1"><g transform="translate(68.346529, 53.527775)"><g><path d="M 42.84375 -20.34375 C 42.84375 -19.863281 42.828125 -19.40625 42.796875 -18.96875 C 42.773438 -18.539062 42.726562 -17.957031 42.65625 -17.21875 L 11.9375 -17.21875 C 12.269531 -15.070312 12.953125 -13.242188 13.984375 -11.734375 C 15.015625 -10.234375 16.296875 -9.082031 17.828125 -8.28125 C 19.359375 -7.476562 21.03125 -7.078125 22.84375 -7.078125 C 25.1875 -7.078125 27.082031 -7.539062 28.53125 -8.46875 C 29.988281 -9.40625 31.050781 -10.703125 31.71875 -12.359375 L 41.8125 -12.359375 C 41.320312 -10.597656 40.519531 -8.898438 39.40625 -7.265625 C 38.300781 -5.628906 36.945312 -4.179688 35.34375 -2.921875 C 33.738281 -1.660156 31.894531 -0.660156 29.8125 0.078125 C 27.738281 0.816406 25.476562 1.1875 23.03125 1.1875 C 20.070312 1.1875 17.347656 0.644531 14.859375 -0.4375 C 12.367188 -1.519531 10.210938 -3.015625 8.390625 -4.921875 C 6.566406 -6.835938 5.148438 -9.054688 4.140625 -11.578125 C 3.140625 -14.109375 2.640625 -16.800781 2.640625 -19.65625 C 2.640625 -22.539062 3.140625 -25.238281 4.140625 -27.75 C 5.148438 -30.257812 6.566406 -32.472656 8.390625 -34.390625 C 10.210938 -36.304688 12.367188 -37.804688 14.859375 -38.890625 C 17.347656 -39.972656 20.070312 -40.515625 23.03125 -40.515625 C 25.988281 -40.515625 28.679688 -39.976562 31.109375 -38.90625 C 33.546875 -37.832031 35.640625 -36.359375 37.390625 -34.484375 C 39.140625 -32.609375 40.484375 -30.457031 41.421875 -28.03125 C 42.367188 -25.613281 42.84375 -23.050781 42.84375 -20.34375 Z M 12.3125 -24.375 L 33.390625 -24.375 C 33.265625 -25.851562 32.71875 -27.195312 31.75 -28.40625 C 30.78125 -29.613281 29.53125 -30.585938 28 -31.328125 C 26.46875 -32.066406 24.796875 -32.4375 22.984375 -32.4375 C 21.429688 -32.4375 19.941406 -32.148438 18.515625 -31.578125 C 17.085938 -31.003906 15.832031 -30.125 14.75 -28.9375 C 13.664062 -27.75 12.851562 -26.226562 12.3125 -24.375 Z M 12.3125 -24.375 "/></g></g></g><g clip-path="url(#92f97b5c6e)"><g fill="#ff3131" fill-opacity="1"><g transform="translate(108.117349, 53.527775)"><g><path d="M 14.6875 13.421875 L 5.4375 13.421875 L 5.4375 -39.328125 L 14.234375 -39.328125 L 14.234375 -32.703125 C 15.660156 -35.078125 17.554688 -36.960938 19.921875 -38.359375 C 22.296875 -39.765625 24.898438 -40.46875 27.734375 -40.46875 C 30.535156 -40.46875 33.101562 -39.925781 35.4375 -38.84375 C 37.769531 -37.757812 39.789062 -36.265625 41.5 -34.359375 C 43.207031 -32.460938 44.535156 -30.257812 45.484375 -27.75 C 46.429688 -25.238281 46.90625 -22.539062 46.90625 -19.65625 C 46.90625 -16.78125 46.429688 -14.078125 45.484375 -11.546875 C 44.535156 -9.023438 43.203125 -6.804688 41.484375 -4.890625 C 39.765625 -2.984375 37.75 -1.492188 35.4375 -0.421875 C 33.132812 0.648438 30.601562 1.1875 27.84375 1.1875 C 25.9375 1.1875 24.128906 0.875 22.421875 0.25 C 20.710938 -0.375 19.179688 -1.253906 17.828125 -2.390625 C 16.472656 -3.523438 15.363281 -4.84375 14.5 -6.34375 L 14.6875 -1.796875 Z M 26.171875 -7.34375 C 28.253906 -7.34375 30.171875 -7.835938 31.921875 -8.828125 C 33.671875 -9.828125 35.070312 -11.25 36.125 -13.09375 C 37.1875 -14.945312 37.71875 -17.132812 37.71875 -19.65625 C 37.71875 -22.132812 37.191406 -24.289062 36.140625 -26.125 C 35.097656 -27.957031 33.703125 -29.382812 31.953125 -30.40625 C 30.210938 -31.425781 28.269531 -31.9375 26.125 -31.9375 C 24.519531 -31.9375 23.019531 -31.625 21.625 -31 C 20.238281 -30.375 19.015625 -29.5 17.953125 -28.375 C 16.898438 -27.257812 16.070312 -25.960938 15.46875 -24.484375 C 14.875 -23.003906 14.578125 -21.394531 14.578125 -19.65625 C 14.578125 -17.875 14.878906 -16.226562 15.484375 -14.71875 C 16.097656 -13.21875 16.941406 -11.910156 18.015625 -10.796875 C 19.085938 -9.691406 20.320312 -8.835938 21.71875 -8.234375 C 23.125 -7.640625 24.609375 -7.34375 26.171875 -7.34375 Z M 26.171875 -7.34375 "/></g></g></g></g></g></g></svg>