<svg xmlns="http://www.w3.org/2000/svg" xmlns:xlink="http://www.w3.org/1999/xlink" width="500" zoomAndPan="magnify" viewBox="0 0 375 374.999991" height="500" preserveAspectRatio="xMidYMid meet" version="1.0"><defs><g/><clipPath id="e6e3e115b5"><path d="M 0.347656 69.742188 L 57.929688 69.742188 L 57.929688 127.324219 L 0.347656 127.324219 Z M 0.347656 69.742188 " clip-rule="nonzero"/></clipPath><clipPath id="2e25348c9d"><path d="M 0.347656 0.742188 L 57.894531 0.742188 L 57.894531 58.292969 L 0.347656 58.292969 Z M 0.347656 0.742188 " clip-rule="nonzero"/></clipPath><clipPath id="167226b16a"><rect x="0" width="58" y="0" height="59"/></clipPath><clipPath id="cb6f1ad49d"><path d="M 231 67 L 317.878906 67 L 317.878906 160.878906 L 231 160.878906 Z M 231 67 " clip-rule="nonzero"/></clipPath><clipPath id="99deb6471e"><path d="M 53 27 L 86.878906 27 L 86.878906 69 L 53 69 Z M 53 27 " clip-rule="nonzero"/></clipPath><clipPath id="4d916b53ea"><rect x="0" width="87" y="0" height="94"/></clipPath><clipPath id="73d57c30ae"><path d="M 63.714844 0.796875 L 122.015625 0.796875 L 122.015625 59.097656 L 63.714844 59.097656 Z M 63.714844 0.796875 " clip-rule="nonzero"/></clipPath><clipPath id="19a724842f"><path d="M 0.121094 0.558594 L 59 0.558594 L 59 60 L 0.121094 60 Z M 0.121094 0.558594 " clip-rule="nonzero"/></clipPath><clipPath id="72dc88e148"><path d="M 0.347656 58.335938 L 1.378906 0.761719 L 58.953125 1.796875 L 57.917969 59.367188 Z M 0.347656 58.335938 " clip-rule="nonzero"/></clipPath><clipPath id="8d2ce98e43"><path d="M 0.121094 0.558594 L 58 0.558594 L 58 59.601562 L 0.121094 59.601562 Z M 0.121094 0.558594 " clip-rule="nonzero"/></clipPath><clipPath id="76cc52402a"><path d="M 0.347656 58.335938 L 1.378906 0.761719 L 58.953125 1.796875 L 57.917969 59.367188 Z M 0.347656 58.335938 " clip-rule="nonzero"/></clipPath><clipPath id="1fa8eac910"><path d="M 58.917969 1.828125 L 57.886719 59.402344 L 0.3125 58.367188 L 1.347656 0.796875 Z M 58.917969 1.828125 " clip-rule="nonzero"/></clipPath><clipPath id="cccfad2051"><rect x="0" width="59" y="0" height="60"/></clipPath><clipPath id="a2e4baf32e"><path d="M 63 66 L 232 66 L 232 160.878906 L 63 160.878906 Z M 63 66 " clip-rule="nonzero"/></clipPath><clipPath id="852eefe15c"><path d="M 123 28 L 168.960938 28 L 168.960938 88 L 123 88 Z M 123 28 " clip-rule="nonzero"/></clipPath><clipPath id="6fee0be3d1"><rect x="0" width="169" y="0" height="95"/></clipPath><clipPath id="c4fbd97c03"><rect x="0" width="318" y="0" height="161"/></clipPath></defs><g transform="matrix(1, 0, 0, 1, 15, 94)"><g clip-path="url(#c4fbd97c03)"><g clip-path="url(#e6e3e115b5)"><g transform="matrix(1, 0, 0, 1, 0, 69)"><g clip-path="url(#167226b16a)"><g clip-path="url(#2e25348c9d)"><path fill="#ffffff" d="M 0.347656 58.292969 C 32.128906 58.292969 57.894531 32.527344 57.894531 0.746094 L 0.347656 0.746094 Z M 0.347656 58.292969 " fill-opacity="1" fill-rule="nonzero"/></g></g></g></g><g clip-path="url(#cb6f1ad49d)"><g transform="matrix(1, 0, 0, 1, 231, 67)"><g clip-path="url(#4d916b53ea)"><g fill="#000000" fill-opacity="1"><g transform="translate(1.154959, 66.960911)"><g><path d="M 51.640625 -61.390625 L 51.640625 -21.796875 C 51.640625 -14.253906 49.601562 -8.550781 45.53125 -4.6875 C 41.46875 -0.820312 35.515625 1.109375 27.671875 1.109375 C 19.835938 1.109375 13.882812 -0.820312 9.8125 -4.6875 C 5.75 -8.550781 3.71875 -14.253906 3.71875 -21.796875 L 3.71875 -61.390625 L 17.703125 -61.390625 L 17.703125 -25.890625 C 17.703125 -20.929688 18.484375 -17.484375 20.046875 -15.546875 C 21.609375 -13.617188 24.148438 -12.65625 27.671875 -12.65625 C 31.203125 -12.65625 33.75 -13.617188 35.3125 -15.546875 C 36.875 -17.484375 37.65625 -20.929688 37.65625 -25.890625 L 37.65625 -61.390625 Z M 51.640625 -61.390625 "/></g></g></g><g clip-path="url(#99deb6471e)"><g fill="#000000" fill-opacity="1"><g transform="translate(51.599434, 66.960911)"><g><path d="M 21.0625 -39.28125 C 23.238281 -39.28125 25.394531 -39.03125 27.53125 -38.53125 C 29.664062 -38.039062 31.253906 -37.546875 32.296875 -37.046875 L 33.859375 -36.3125 L 29.546875 -27.671875 C 26.566406 -29.265625 23.738281 -30.0625 21.0625 -30.0625 C 19.570312 -30.0625 18.515625 -29.898438 17.890625 -29.578125 C 17.273438 -29.253906 16.96875 -28.644531 16.96875 -27.75 C 16.96875 -27.550781 16.988281 -27.351562 17.03125 -27.15625 C 17.082031 -26.957031 17.179688 -26.769531 17.328125 -26.59375 C 17.484375 -26.425781 17.625 -26.28125 17.75 -26.15625 C 17.875 -26.03125 18.082031 -25.890625 18.375 -25.734375 C 18.675781 -25.585938 18.910156 -25.476562 19.078125 -25.40625 C 19.253906 -25.332031 19.539062 -25.222656 19.9375 -25.078125 C 20.332031 -24.929688 20.628906 -24.816406 20.828125 -24.734375 C 21.023438 -24.660156 21.359375 -24.550781 21.828125 -24.40625 C 22.304688 -24.257812 22.671875 -24.160156 22.921875 -24.109375 C 24.453125 -23.660156 25.785156 -23.160156 26.921875 -22.609375 C 28.066406 -22.066406 29.269531 -21.320312 30.53125 -20.375 C 31.800781 -19.4375 32.785156 -18.25 33.484375 -16.8125 C 34.179688 -15.375 34.53125 -13.738281 34.53125 -11.90625 C 34.53125 -3.226562 28.5 1.109375 16.4375 1.109375 C 13.707031 1.109375 11.113281 0.691406 8.65625 -0.140625 C 6.207031 -0.984375 4.4375 -1.828125 3.34375 -2.671875 L 1.71875 -4.015625 L 7.0625 -13.015625 C 7.457031 -12.671875 7.976562 -12.265625 8.625 -11.796875 C 9.269531 -11.328125 10.4375 -10.679688 12.125 -9.859375 C 13.8125 -9.035156 15.273438 -8.625 16.515625 -8.625 C 19.242188 -8.625 20.609375 -9.546875 20.609375 -11.390625 C 20.609375 -12.234375 20.257812 -12.890625 19.5625 -13.359375 C 18.875 -13.828125 17.695312 -14.359375 16.03125 -14.953125 C 14.375 -15.546875 13.070312 -16.09375 12.125 -16.59375 C 9.75 -17.832031 7.863281 -19.234375 6.46875 -20.796875 C 5.082031 -22.359375 4.390625 -24.429688 4.390625 -27.015625 C 4.390625 -30.878906 5.890625 -33.890625 8.890625 -36.046875 C 11.890625 -38.203125 15.945312 -39.28125 21.0625 -39.28125 Z M 21.0625 -39.28125 "/></g></g></g></g></g></g></g><g clip-path="url(#73d57c30ae)"><path fill="#000000" d="M 122.285156 0.796875 C 89.9375 0.796875 63.714844 27.019531 63.714844 59.367188 L 122.285156 59.367188 Z M 122.285156 0.796875 " fill-opacity="1" fill-rule="nonzero"/></g><g clip-path="url(#19a724842f)"><g clip-path="url(#72dc88e148)"><g><g clip-path="url(#cccfad2051)"><g clip-path="url(#8d2ce98e43)"><g clip-path="url(#76cc52402a)"><g clip-path="url(#1fa8eac910)"><path fill="#ffffff" d="M 57.886719 59.367188 C 58.457031 27.589844 33.15625 1.367188 1.378906 0.796875 L 0.347656 58.335938 Z M 57.886719 59.367188 " fill-opacity="1" fill-rule="nonzero"/></g></g></g></g></g></g></g><g clip-path="url(#a2e4baf32e)"><g transform="matrix(1, 0, 0, 1, 63, 66)"><g clip-path="url(#6fee0be3d1)"><g fill="#ffffff" fill-opacity="1"><g transform="translate(0.714455, 68.038411)"><g><path d="M 4.515625 -62.03125 L 27.140625 -62.03125 C 33.453125 -62.03125 38.5625 -60.398438 42.46875 -57.140625 C 46.382812 -53.878906 48.34375 -49.140625 48.34375 -42.921875 C 48.34375 -36.710938 46.363281 -31.835938 42.40625 -28.296875 C 38.445312 -24.765625 33.359375 -23 27.140625 -23 L 18.640625 -23 L 18.640625 0 L 4.515625 0 Z M 18.640625 -34.28125 L 22.625 -34.28125 C 25.789062 -34.28125 28.382812 -34.921875 30.40625 -36.203125 C 32.4375 -37.484375 33.453125 -39.578125 33.453125 -42.484375 C 33.453125 -45.441406 32.4375 -47.554688 30.40625 -48.828125 C 28.382812 -50.109375 25.789062 -50.75 22.625 -50.75 L 18.640625 -50.75 Z M 18.640625 -34.28125 "/></g></g></g><g fill="#ffffff" fill-opacity="1"><g transform="translate(45.819129, 68.038411)"><g><path d="M 4.515625 0 L 4.515625 -38.578125 L 17.8125 -38.578125 L 17.8125 -33 L 17.96875 -33 C 18.070312 -33.207031 18.234375 -33.457031 18.453125 -33.75 C 18.679688 -34.050781 19.171875 -34.578125 19.921875 -35.328125 C 20.671875 -36.085938 21.472656 -36.765625 22.328125 -37.359375 C 23.179688 -37.960938 24.285156 -38.503906 25.640625 -38.984375 C 26.992188 -39.460938 28.375 -39.703125 29.78125 -39.703125 C 31.226562 -39.703125 32.65625 -39.5 34.0625 -39.09375 C 35.46875 -38.695312 36.492188 -38.296875 37.140625 -37.890625 L 38.1875 -37.296875 L 32.625 -26.015625 C 30.976562 -27.421875 28.675781 -28.125 25.71875 -28.125 C 24.113281 -28.125 22.734375 -27.769531 21.578125 -27.0625 C 20.421875 -26.363281 19.601562 -25.507812 19.125 -24.5 C 18.65625 -23.5 18.316406 -22.648438 18.109375 -21.953125 C 17.910156 -21.253906 17.8125 -20.703125 17.8125 -20.296875 L 17.8125 0 Z M 4.515625 0 "/></g></g></g><g fill="#ffffff" fill-opacity="1"><g transform="translate(78.294338, 68.038411)"><g><path d="M 43.53125 -17.4375 L 15.5625 -17.4375 C 15.5625 -14.738281 16.4375 -12.734375 18.1875 -11.421875 C 19.945312 -10.117188 21.851562 -9.46875 23.90625 -9.46875 C 26.0625 -9.46875 27.765625 -9.753906 29.015625 -10.328125 C 30.273438 -10.910156 31.707031 -12.054688 33.3125 -13.765625 L 42.9375 -8.953125 C 38.925781 -2.234375 32.257812 1.125 22.9375 1.125 C 17.113281 1.125 12.125 -0.863281 7.96875 -4.84375 C 3.8125 -8.832031 1.734375 -13.632812 1.734375 -19.25 C 1.734375 -24.863281 3.8125 -29.675781 7.96875 -33.6875 C 12.125 -37.695312 17.113281 -39.703125 22.9375 -39.703125 C 29.050781 -39.703125 34.023438 -37.929688 37.859375 -34.390625 C 41.691406 -30.859375 43.609375 -25.8125 43.609375 -19.25 C 43.609375 -18.34375 43.582031 -17.738281 43.53125 -17.4375 Z M 15.9375 -24.8125 L 30.59375 -24.8125 C 30.300781 -26.8125 29.515625 -28.347656 28.234375 -29.421875 C 26.953125 -30.503906 25.3125 -31.046875 23.3125 -31.046875 C 21.101562 -31.046875 19.347656 -30.46875 18.046875 -29.3125 C 16.742188 -28.164062 16.039062 -26.664062 15.9375 -24.8125 Z M 15.9375 -24.8125 "/></g></g></g><g clip-path="url(#852eefe15c)"><g fill="#ffffff" fill-opacity="1"><g transform="translate(118.662969, 68.038411)"><g><path d="M 44.203125 -33.796875 C 47.816406 -29.859375 49.625 -25.03125 49.625 -19.3125 C 49.625 -13.601562 47.816406 -8.769531 44.203125 -4.8125 C 40.597656 -0.851562 36.015625 1.125 30.453125 1.125 C 25.335938 1.125 21.125 -0.476562 17.8125 -3.6875 L 17.8125 19.546875 L 4.515625 19.546875 L 4.515625 -38.578125 L 17.671875 -38.578125 L 17.671875 -34.203125 L 17.8125 -34.203125 C 21.125 -37.867188 25.335938 -39.703125 30.453125 -39.703125 C 36.015625 -39.703125 40.597656 -37.734375 44.203125 -33.796875 Z M 32.890625 -12.78125 C 34.617188 -14.488281 35.484375 -16.671875 35.484375 -19.328125 C 35.484375 -21.984375 34.65625 -24.148438 33 -25.828125 C 31.351562 -27.503906 29.175781 -28.34375 26.46875 -28.34375 C 23.863281 -28.34375 21.71875 -27.488281 20.03125 -25.78125 C 18.351562 -24.082031 17.515625 -21.929688 17.515625 -19.328125 C 17.515625 -16.671875 18.378906 -14.488281 20.109375 -12.78125 C 21.835938 -11.070312 23.957031 -10.21875 26.46875 -10.21875 C 29.019531 -10.21875 31.160156 -11.070312 32.890625 -12.78125 Z M 32.890625 -12.78125 "/></g></g></g></g></g></g></g></g></g></svg>